<svg width="40" height="40" viewBox="0 0 40 40" fill="none" xmlns="http://www.w3.org/2000/svg">
<path d="M20 0C31.0457 0 40 8.9543 40 20C40 31.0457 31.0457 40 20 40C8.9543 40 0 31.0457 0 20C0 8.9543 8.9543 0 20 0ZM20 1C9.50659 1 1 9.50659 1 20C1 30.4934 9.50659 39 20 39C30.4934 39 39 30.4934 39 20C39 9.50659 30.4934 1 20 1ZM20.25 15C20.6642 15 21 15.3358 21 15.75V19.5H24.75C25.1642 19.5 25.5 19.8358 25.5 20.25C25.5 20.6642 25.1642 21 24.75 21H21V24.75C21 25.1642 20.6642 25.5 20.25 25.5C19.8358 25.5 19.5 25.1642 19.5 24.75V21H15.75C15.3358 21 15 20.6642 15 20.25C15 19.8358 15.3358 19.5 15.75 19.5H19.5V15.75C19.5 15.3358 19.8358 15 20.25 15Z" fill="#10C3F4"/>
</svg>
