<svg width="103" height="128" viewBox="0 0 103 128" fill="none" xmlns="http://www.w3.org/2000/svg">
<path d="M93 2.60168C98.5229 2.60168 103 7.07884 103 12.6017V97.9689C103 103.492 98.5229 107.969 93 107.969H63.8252L53 127.482L42.1748 107.969H12C6.47715 107.969 2 103.492 2 97.9689V12.6017C2 7.07884 6.47715 2.60168 12 2.60168H93Z" fill="#00BFF3"/>
<path d="M91 0C96.5229 0 101 4.47715 101 10V95.3672C101 100.89 96.5229 105.367 91 105.367H61.8252L51 124.88L40.1748 105.367H10C4.47715 105.367 0 100.89 0 95.3672V10C1.8457e-06 4.47715 4.47715 1.61064e-08 10 0H91Z" fill="black"/>
</svg>
